<?xml version="1.0" encoding="utf-8"?>
<!-- Generator: Adobe Illustrator 12.0.0, SVG Export Plug-In . SVG Version: 6.00 Build 51448)  -->
<!DOCTYPE svg PUBLIC "-//W3C//DTD SVG 1.1//EN" "http://www.w3.org/Graphics/SVG/1.1/DTD/svg11.dtd" [
	<!ENTITY ns_svg "http://www.w3.org/2000/svg">
	<!ENTITY ns_xlink "http://www.w3.org/1999/xlink">
]>
<svg  version="1.1" id="Layer_1" xmlns="&ns_svg;" xmlns:xlink="&ns_xlink;" width="120" height="120" viewBox="2767 506 120 120"
	 overflow="visible" enable-background="new 2767 506 120 120" xml:space="preserve">
<circle id="Ellipse_20" fill="#1B75BC" cx="2817" cy="556" r="50"/>
<path id="Rectangle_14" fill="#FFFFFF" d="M2800.333,528.5h35.834c5.982,0,10.833,4.851,10.833,10.833v35.834
	c0,5.982-4.851,10.833-10.833,10.833h-35.834c-5.982,0-10.833-4.851-10.833-10.833v-35.834
	C2789.5,533.351,2794.351,528.5,2800.333,528.5z"/>
<path id="Rectangle_15" fill="#1B75BC" d="M2795.334,552.667h45l0,0v22.5c0,2.301-1.866,4.166-4.167,4.166H2799.5
	c-2.301,0-4.166-1.865-4.166-4.166V552.667L2795.334,552.667z"/>
<path id="Rectangle_16" fill="#1B75BC" d="M2833.667,534.333H2837c2.301,0,4.167,1.866,4.167,4.167v3.333
	c0,2.302-1.866,4.167-4.167,4.167h-3.333c-2.302,0-4.167-1.865-4.167-4.167V538.5C2829.5,536.199,2831.365,534.333,2833.667,534.333
	z"/>
<circle fill="#FFFFFF" stroke="#1B75BC" stroke-width="0.25" cx="2817.834" cy="556.833" r="16.667"/>
<circle fill="#1B75BC" cx="2817.834" cy="556.833" r="13.333"/>
</svg>
