<svg id="Layer_1" data-name="Layer 1" xmlns="http://www.w3.org/2000/svg" viewBox="0 0 400 200"><defs><style>.cls-1{font-size:41.25px;fill:#231f20;font-family:SegoeUI-Semilight, Segoe UI;}.cls-2{letter-spacing:0em;}.cls-3{letter-spacing:0em;}.cls-4{font-size:68.75px;font-family:SegoeUI-Bold, Segoe UI;font-weight:700;letter-spacing:0.22em;}.cls-4,.cls-9{fill:#f6921e;}.cls-5{letter-spacing:0.2em;}.cls-6{fill:#fff;}.cls-6,.cls-7,.cls-9{stroke:#231f20;}.cls-6,.cls-7,.cls-8,.cls-9{stroke-miterlimit:10;stroke-width:2.06px;}.cls-7,.cls-8{fill:none;}.cls-8{stroke:#f6921e;}</style></defs><title>Artboard 1</title><text class="cls-1" transform="translate(157.09 93.09)">TELEKIN<tspan class="cls-2" x="145.06" y="0">E</tspan><tspan class="cls-3" x="165.89" y="0">TIC</tspan></text><text class="cls-4" transform="translate(167.7 148.35)">L<tspan class="cls-5" x="50.41" y="0">ABS</tspan></text><path class="cls-6" d="M137.65,148.33a13.4,13.4,0,0,1-13.4,13.4l-74.17-.14a13.42,13.42,0,0,1-9.26-20.27L43,137.47l8.77-15.72,10.9-19.55,8.55-15.32a3.25,3.25,0,0,0,.41-1.58V63.19h30.32V85.37a3.35,3.35,0,0,0,.49,1.73l30.9,50.37,2.37,3.85A13.34,13.34,0,0,1,137.65,148.33Z"/><path class="cls-6" d="M104.76,60.07v2a1.09,1.09,0,0,1-1.09,1.09H69.84a1.09,1.09,0,0,1-1.09-1.09v-2A1.09,1.09,0,0,1,69.84,59h33.83A1.09,1.09,0,0,1,104.76,60.07Z"/><line class="cls-7" x1="62.64" y1="102.21" x2="78.73" y2="102.21"/><line class="cls-7" x1="51.73" y1="121.75" x2="68.76" y2="121.75"/><polyline class="cls-7" points="133.49 137.47 133.31 137.47 42.96 137.47"/><path class="cls-7" d="M116.86,90.12A20.49,20.49,0,0,0,119,71.8a21,21,0,0,0-1.91-4"/><path class="cls-7" d="M126.63,50.36a38.72,38.72,0,0,1,6.93,13A38,38,0,0,1,123,103.23"/><path class="cls-7" d="M132.34,33.25A57.51,57.51,0,0,1,148.72,55.8,58.66,58.66,0,0,1,133.3,121.5"/><path class="cls-8" d="M115.74,89.33a18.8,18.8,0,0,0,.54-21"/><path class="cls-8" d="M125.79,51a37.16,37.16,0,0,1,6.8,12.61,36.57,36.57,0,0,1-10.46,38.65"/><path class="cls-8" d="M131.56,34.32a57.09,57.09,0,0,1,.93,86.26"/><path class="cls-7" d="M54.79,67.65a21,21,0,0,0-1.37,4.19,20.49,20.49,0,0,0,4.52,17.88"/><path class="cls-7" d="M50.06,103.36A38,38,0,0,1,39.39,63.54a38.72,38.72,0,0,1,6.88-13"/><path class="cls-7" d="M41,121.43a58.66,58.66,0,0,1-17.38-65.2,57.51,57.51,0,0,1,15.69-23"/><path class="cls-8" d="M55.63,68A18.8,18.8,0,0,0,59,88.79"/><path class="cls-8" d="M50.94,102.38A36.57,36.57,0,0,1,40.36,63.77a37.16,37.16,0,0,1,6.75-12.63"/><path class="cls-8" d="M41.8,120.48a57.09,57.09,0,0,1-1.66-86.25"/><path class="cls-9" d="M137.65,148.33a13.4,13.4,0,0,1-13.4,13.4l-74.17-.14a13.42,13.42,0,0,1-9.26-20.27L43,137.47h90.34l2.37,3.85A13.34,13.34,0,0,1,137.65,148.33Z"/></svg>