<?xml version="1.0" encoding="utf-8"?>
<!-- Generator: Adobe Illustrator 12.0.0, SVG Export Plug-In . SVG Version: 6.00 Build 51448)  -->
<!DOCTYPE svg PUBLIC "-//W3C//DTD SVG 1.1//EN" "http://www.w3.org/Graphics/SVG/1.1/DTD/svg11.dtd" [
	<!ENTITY ns_svg "http://www.w3.org/2000/svg">
	<!ENTITY ns_xlink "http://www.w3.org/1999/xlink">
]>
<svg  version="1.1" id="Layer_1" xmlns="&ns_svg;" xmlns:xlink="&ns_xlink;" width="120" height="120" viewBox="2915 506 120 120"
	 overflow="visible" enable-background="new 2915 506 120 120" xml:space="preserve">
<circle id="Ellipse_10" fill="#1B75BC" cx="2965" cy="556" r="50"/>
<path id="Path_14" fill="#FFFFFF" d="M2935.833,574.554c3.503,0.063,7.001-0.301,10.417-1.083c2.74-0.763,5.273-2.13,7.416-4
	c-2.415-0.172-4.743-0.977-6.75-2.333c-2.854-2.146-4.5-6.083-4.5-6.083h5.5c0,0-4.708-1.625-7.166-4.75
	c-2.459-3.125-2.667-7.75-2.667-7.75c0.848,0.478,1.741,0.868,2.667,1.166c0.925,0.265,1.874,0.432,2.833,0.5
	c0,0-4.125-3.583-5-7.666c-0.875-4.084,1.5-8.667,1.5-8.667c3.031,3.725,6.77,6.812,11,9.083c4.276,2.137,8.972,3.304,13.75,3.417
	c0,0-1.417-9.5,6.917-13.333c8.333-3.834,14.083,2.583,14.083,2.583s1.896-0.5,3.833-1.25s3.917-1.75,3.917-1.75
	c-0.522,1.27-1.193,2.473-2,3.583c-0.854,1.083-1.833,2.063-2.917,2.917c0,0,1.834-0.271,3.334-0.667
	c0.91-0.24,1.801-0.547,2.666-0.916c-0.583,1.26-1.371,2.414-2.333,3.416c-1.098,1.025-2.331,1.896-3.667,2.584
	c0,0,2.5,19.666-15.75,31.25C2954.666,586.388,2935.833,574.554,2935.833,574.554z"/>
</svg>
