<?xml version="1.0" encoding="utf-8"?>
<!-- Generator: Adobe Illustrator 12.0.0, SVG Export Plug-In . SVG Version: 6.00 Build 51448)  -->
<!DOCTYPE svg PUBLIC "-//W3C//DTD SVG 1.1//EN" "http://www.w3.org/Graphics/SVG/1.1/DTD/svg11.dtd" [
	<!ENTITY ns_svg "http://www.w3.org/2000/svg">
	<!ENTITY ns_xlink "http://www.w3.org/1999/xlink">
]>
<svg  version="1.1" id="Layer_1" xmlns="&ns_svg;" xmlns:xlink="&ns_xlink;" width="120" height="120" viewBox="2912 366 120 120"
	 overflow="visible" enable-background="new 2912 366 120 120" xml:space="preserve">
<path id="Path_106" fill="#1B75BC" d="M2962,366c27.614,0,50,22.386,50,50s-22.386,50-50,50s-50-22.386-50-50S2934.386,366,2962,366
	z"/>
<path id="Path_103" fill="#FFFFFF" d="M2942.308,398.259c0,0,9-0.592,19.542-0.592c10.541,0,19.657,0.592,19.657,0.592
	c2.452,0,5.444,3.606,5.444,6.11c0,0,0.618,4.455,0.851,10.408c0.074,4.248-0.21,8.495-0.851,12.695c0,2.5-2.818,6.189-5.754,6.189
	c0,0-9.49,0.667-19.078,0.667s-19.271-0.667-19.271-0.667c-2.454,0.005-5.871-3.311-6.099-7.329c0,0-0.583-5.145-0.583-10.842
	c0.027-3.722,0.298-7.437,0.811-11.122C2936.978,401.865,2939.854,398.259,2942.308,398.259z"/>
<path id="Path_104" fill="#336699" d="M2957.523,408.568v14.423l13.143-7.547L2957.523,408.568z"/>
<path id="Path_105" fill="#1B75BC" d="M2957.523,408.568v14.423l11.667-6.708L2957.523,408.568z"/>
</svg>
